{"scene":0,"asset":{"generator":"ImageToStl.com","version":"2.0"},"scenes":[{"name":"Scene","nodes":[0]}],"nodes":[{"name":"Node0","children":[1,2,3,4,5,6,7,8,9,10,11,12,13,14,15,16,17,18]},{"name":"Node1","mesh":0},{"name":"Node2","mesh":1},{"name":"Node3","mesh":2},{"name":"Node4","mesh":3},{"name":"Node5","mesh":4},{"name":"Node6","mesh":5},{"name":"Node7","mesh":6},{"name":"Node8","mesh":7},{"name":"Node9","mesh":8},{"name":"Node10","mesh":9},{"name":"Node11","mesh":10},{"name":"Node12","mesh":11},{"name":"Node13","mesh":12},{"name":"Node14","mesh":13},{"name":"Node15","mesh":14},{"name":"Node16","mesh":15},{"name":"Node17","mesh":16},{"name":"Node18","mesh":17}],"materials":[{"name":"Material","pbrMetallicRoughness":{"baseColorFactor":[0.8,0.8,0.8,1.0],"metallicFactor":0.5,"roughnessFactor":0.75},"emissiveFactor":[0.0,0.0,0.0],"doubleSided":true},{"name":"gövde","pbrMetallicRoughness":{"baseColorFactor":[0.8,0.8,0.8,1.0],"metallicFactor":0.5,"roughnessFactor":0.75},"emissiveFactor":[0.0,0.0,0.0],"doubleSided":true},{"name":"lastikön","pbrMetallicRoughness":{"baseColorFactor":[0.8,0.8,0.8,1.0],"metallicFactor":0.5,"roughnessFactor":0.75},"emissiveFactor":[0.0,0.0,0.0],"doubleSided":true},{"name":"jant","pbrMetallicRoughness":{"baseColorFactor":[0.018396,0.018396,0.018396,1.0],"metallicFactor":0.5,"roughnessFactor":0.75},"emissiveFactor":[0.0,0.0,0.0],"doubleSided":true},{"name":"pervane","pbrMetallicRoughness":{"baseColorFactor":[0.8,0.8,0.8,1.0],"metallicFactor":0.5,"roughnessFactor":0.75},"emissiveFactor":[0.0,0.0,0.0],"doubleSided":true},{"name":"arkatekertucu","pbrMetallicRoughness":{"baseColorFactor":[0.8,0.8,0.8,1.0],"metallicFactor":0.5,"roughnessFactor":0.75},"emissiveFactor":[0.0,0.0,0.0],"doubleSided":true},{"name":"arkateker","pbrMetallicRoughness":{"baseColorFactor":[0.8,0.8,0.8,1.0],"metallicFactor":0.5,"roughnessFactor":0.75},"emissiveFactor":[0.0,0.0,0.0],"doubleSided":true},{"name":"gövdeparca","pbrMetallicRoughness":{"baseColorFactor":[0.8,0.8,0.8,1.0],"metallicFactor":0.5,"roughnessFactor":0.75},"emissiveFactor":[0.0,0.0,0.0],"doubleSided":true},{"name":"cam","pbrMetallicRoughness":{"baseColorFactor":[0.8,0.8,0.8,1.0],"metallicFactor":0.0,"roughnessFactor":0.0},"emissiveFactor":[0.0,0.0,0.0],"doubleSided":true},{"name":"koltuk","pbrMetallicRoughness":{"baseColorFactor":[0.8,0.8,0.8,1.0],"metallicFactor":0.5,"roughnessFactor":0.75},"emissiveFactor":[0.0,0.0,0.0],"doubleSided":true},{"name":"zevkcubugu","pbrMetallicRoughness":{"baseColorFactor":[0.8,0.8,0.8,1.0],"metallicFactor":0.5,"roughnessFactor":0.75},"emissiveFactor":[0.0,0.0,0.0],"doubleSided":true},{"name":"cam2","pbrMetallicRoughness":{"baseColorFactor":[0.8,0.8,0.8,1.0],"metallicFactor":0.0,"roughnessFactor":0.0},"emissiveFactor":[0.0,0.0,0.0],"doubleSided":true}],"meshes":[{"name":"Mesh0","primitives":[{"indices":3,"material":0,"attributes":{"POSITION":0,"NORMAL":1,"TEXCOORD_0":2}}]},{"name":"Mesh0","primitives":[{"indices":7,"material":1,"attributes":{"POSITION":4,"NORMAL":5,"TEXCOORD_0":6}}]},{"name":"Mesh0","primitives":[{"indices":11,"material":2,"attributes":{"POSITION":8,"NORMAL":9,"TEXCOORD_0":10}}]},{"name":"Mesh0","primitives":[{"indices":15,"material":3,"attributes":{"POSITION":12,"NORMAL":13,"TEXCOORD_0":14}}]},{"name":"Mesh0","primitives":[{"indices":19,"material":2,"attributes":{"POSITION":16,"NORMAL":17,"TEXCOORD_0":18}}]},{"name":"Mesh0","primitives":[{"indices":23,"material":3,"attributes":{"POSITION":20,"NORMAL":21,"TEXCOORD_0":22}}]},{"name":"Mesh0","primitives":[{"indices":27,"material":4,"attributes":{"POSITION":24,"NORMAL":25,"TEXCOORD_0":26}}]},{"name":"Mesh0","primitives":[{"indices":31,"material":5,"attributes":{"POSITION":28,"NORMAL":29,"TEXCOORD_0":30}}]},{"name":"Mesh0","primitives":[{"indices":35,"material":6,"attributes":{"POSITION":32,"NORMAL":33,"TEXCOORD_0":34}}]},{"name":"Mesh0","primitives":[{"indices":39,"material":7,"attributes":{"POSITION":36,"NORMAL":37,"TEXCOORD_0":38}}]},{"name":"Mesh0","primitives":[{"indices":43,"material":7,"attributes":{"POSITION":40,"NORMAL":41,"TEXCOORD_0":42}}]},{"name":"Mesh0","primitives":[{"indices":47,"material":7,"attributes":{"POSITION":44,"NORMAL":45,"TEXCOORD_0":46}}]},{"name":"Mesh0","primitives":[{"indices":51,"material":7,"attributes":{"POSITION":48,"NORMAL":49,"TEXCOORD_0":50}}]},{"name":"Mesh0","primitives":[{"indices":55,"material":7,"attributes":{"POSITION":52,"NORMAL":53,"TEXCOORD_0":54}}]},{"name":"Mesh0","primitives":[{"indices":59,"material":8,"attributes":{"POSITION":56,"NORMAL":57,"TEXCOORD_0":58}}]},{"name":"Mesh0","primitives":[{"indices":63,"material":9,"attributes":{"POSITION":60,"NORMAL":61,"TEXCOORD_0":62}}]},{"name":"Mesh0","primitives":[{"indices":67,"material":10,"attributes":{"POSITION":64,"NORMAL":65,"TEXCOORD_0":66}}]},{"name":"Mesh0","primitives":[{"indices":71,"material":11,"attributes":{"POSITION":68,"NORMAL":69,"TEXCOORD_0":70}}]}],"accessors":[{"bufferView":0,"componentType":5126,"count":4,"type":"VEC3","min":[-59.107765,-59.107765,0.5022364],"max":[59.107765,59.107765,0.5022364]},{"bufferView":1,"componentType":5126,"count":4,"type":"VEC3"},{"bufferView":2,"componentType":5126,"count":4,"type":"VEC2"},{"bufferView":3,"componentType":5123,"count":18,"type":"SCALAR"},{"bufferView":4,"componentType":5126,"count":11352,"type":"VEC3","min":[-16.362036,-12.186403,1.0554242],"max":[16.754864,12.175846,8.420759]},{"bufferView":5,"componentType":5126,"count":11352,"type":"VEC3"},{"bufferView":6,"componentType":5126,"count":11352,"type":"VEC2"},{"bufferView":7,"componentType":5123,"count":156870,"type":"SCALAR"},{"bufferView":8,"componentType":5126,"count":848,"type":"VEC3","min":[-2.7402163,5.5867243,0.46902782],"max":[-2.077618,7.1824512,2.0643246]},{"bufferView":9,"componentType":5126,"count":848,"type":"VEC3"},{"bufferView":10,"componentType":5126,"count":848,"type":"VEC2"},{"bufferView":11,"componentType":5123,"count":9486,"type":"SCALAR"},{"bufferView":12,"componentType":5126,"count":1089,"type":"VEC3","min":[-2.6135352,5.9270644,0.79003716],"max":[-2.379287,6.8614464,1.7242906]},{"bufferView":13,"componentType":5126,"count":1089,"type":"VEC3"},{"bufferView":14,"componentType":5126,"count":1089,"type":"VEC2"},{"bufferView":15,"componentType":5123,"count":11214,"type":"SCALAR"},{"bufferView":16,"componentType":5126,"count":848,"type":"VEC3","min":[2.7255127,5.2094154,0.46952623],"max":[3.3506913,6.8021884,2.0644937]},{"bufferView":17,"componentType":5126,"count":848,"type":"VEC3"},{"bufferView":18,"componentType":5126,"count":848,"type":"VEC2"},{"bufferView":19,"componentType":5123,"count":9486,"type":"SCALAR"},{"bufferView":20,"componentType":5126,"count":1089,"type":"VEC3","min":[3.072123,5.5283074,0.7938807],"max":[3.2706187,6.4642143,1.7299086]},{"bufferView":21,"componentType":5126,"count":1089,"type":"VEC3"},{"bufferView":22,"componentType":5126,"count":1089,"type":"VEC2"},{"bufferView":23,"componentType":5123,"count":11214,"type":"SCALAR"},{"bufferView":24,"componentType":5126,"count":1293,"type":"VEC3","min":[-3.267559,9.627411,3.2094202],"max":[4.4018745,12.268536,11.038178]},{"bufferView":25,"componentType":5126,"count":1293,"type":"VEC3"},{"bufferView":26,"componentType":5126,"count":1293,"type":"VEC2"},{"bufferView":27,"componentType":5123,"count":15840,"type":"SCALAR"},{"bufferView":28,"componentType":5126,"count":381,"type":"VEC3","min":[-1.136578,-11.144712,0.66486686],"max":[-0.61996305,-9.51701,1.7676029]},{"bufferView":29,"componentType":5126,"count":381,"type":"VEC3"},{"bufferView":30,"componentType":5126,"count":381,"type":"VEC2"},{"bufferView":31,"componentType":5123,"count":4824,"type":"SCALAR"},{"bufferView":32,"componentType":5126,"count":1456,"type":"VEC3","min":[-0.9160851,-10.456455,0.4804007],"max":[-0.7740141,-9.97655,0.95950913]},{"bufferView":33,"componentType":5126,"count":1456,"type":"VEC3"},{"bufferView":34,"componentType":5126,"count":1456,"type":"VEC2"},{"bufferView":35,"componentType":5123,"count":10332,"type":"SCALAR"},{"bufferView":36,"componentType":5126,"count":180,"type":"VEC3","min":[-13.413761,1.8436002,2.969263],"max":[-7.4307528,4.417392,4.324545]},{"bufferView":37,"componentType":5126,"count":180,"type":"VEC3"},{"bufferView":38,"componentType":5126,"count":180,"type":"VEC2"},{"bufferView":39,"componentType":5123,"count":2052,"type":"SCALAR"},{"bufferView":40,"componentType":5126,"count":164,"type":"VEC3","min":[7.393048,0.79264325,2.965033],"max":[13.5595255,2.5495262,4.3146396]},{"bufferView":41,"componentType":5126,"count":164,"type":"VEC3"},{"bufferView":42,"componentType":5126,"count":164,"type":"VEC2"},{"bufferView":43,"componentType":5123,"count":1836,"type":"SCALAR"},{"bufferView":44,"componentType":5126,"count":359,"type":"VEC3","min":[-0.38737547,-12.291127,2.3245363],"max":[3.4846044,-10.513248,2.8861299]},{"bufferView":45,"componentType":5126,"count":359,"type":"VEC3"},{"bufferView":46,"componentType":5126,"count":359,"type":"VEC2"},{"bufferView":47,"componentType":5123,"count":5166,"type":"SCALAR"},{"bufferView":48,"componentType":5126,"count":395,"type":"VEC3","min":[-5.2734375,-12.191912,2.3245368],"max":[-1.48644,-9.932706,2.8861303]},{"bufferView":49,"componentType":5126,"count":395,"type":"VEC3"},{"bufferView":50,"componentType":5126,"count":395,"type":"VEC2"},{"bufferView":51,"componentType":5123,"count":5490,"type":"SCALAR"},{"bufferView":52,"componentType":5126,"count":705,"type":"VEC3","min":[-1.3411369,-13.317274,1.2639103],"max":[-0.5979969,-11.160559,5.561841]},{"bufferView":53,"componentType":5126,"count":705,"type":"VEC3"},{"bufferView":54,"componentType":5126,"count":705,"type":"VEC2"},{"bufferView":55,"componentType":5123,"count":8982,"type":"SCALAR"},{"bufferView":56,"componentType":5126,"count":489,"type":"VEC3","min":[-0.86486614,-1.1385701,5.372653],"max":[0.70224345,2.2674558,6.621773]},{"bufferView":57,"componentType":5126,"count":489,"type":"VEC3"},{"bufferView":58,"componentType":5126,"count":489,"type":"VEC2"},{"bufferView":59,"componentType":5123,"count":5760,"type":"SCALAR"},{"bufferView":60,"componentType":5126,"count":807,"type":"VEC3","min":[-0.54231316,0.26157218,4.7087936],"max":[0.40158993,1.5604135,6.095772]},{"bufferView":61,"componentType":5126,"count":807,"type":"VEC3"},{"bufferView":62,"componentType":5126,"count":807,"type":"VEC2"},{"bufferView":63,"componentType":5123,"count":8352,"type":"SCALAR"},{"bufferView":64,"componentType":5126,"count":623,"type":"VEC3","min":[-0.073028296,1.753319,4.7891955],"max":[0.06303155,2.267466,5.7932906]},{"bufferView":65,"componentType":5126,"count":623,"type":"VEC3"},{"bufferView":66,"componentType":5126,"count":623,"type":"VEC2"},{"bufferView":67,"componentType":5123,"count":6408,"type":"SCALAR"},{"bufferView":68,"componentType":5126,"count":176,"type":"VEC3","min":[-0.81238616,-0.08550632,5.458919],"max":[0.64608884,1.5287325,6.579023]},{"bufferView":69,"componentType":5126,"count":176,"type":"VEC3"},{"bufferView":70,"componentType":5126,"count":176,"type":"VEC2"},{"bufferView":71,"componentType":5123,"count":2520,"type":"SCALAR"}],"bufferViews":[{"target":34962,"buffer":0,"byteLength":48,"byteOffset":0},{"target":34962,"buffer":0,"byteLength":48,"byteOffset":48},{"target":34962,"buffer":0,"byteLength":32,"byteOffset":96},{"target":34963,"buffer":0,"byteLength":36,"byteOffset":128},{"target":34962,"buffer":0,"byteLength":136224,"byteOffset":164},{"target":34962,"buffer":0,"byteLength":136224,"byteOffset":136388},{"target":34962,"buffer":0,"byteLength":90816,"byteOffset":272612},{"target":34963,"buffer":0,"byteLength":313740,"byteOffset":363428},{"target":34962,"buffer":0,"byteLength":10176,"byteOffset":677168},{"target":34962,"buffer":0,"byteLength":10176,"byteOffset":687344},{"target":34962,"buffer":0,"byteLength":6784,"byteOffset":697520},{"target":34963,"buffer":0,"byteLength":18972,"byteOffset":704304},{"target":34962,"buffer":0,"byteLength":13068,"byteOffset":723276},{"target":34962,"buffer":0,"byteLength":13068,"byteOffset":736344},{"target":34962,"buffer":0,"byteLength":8712,"byteOffset":749412},{"target":34963,"buffer":0,"byteLength":22428,"byteOffset":758124},{"target":34962,"buffer":0,"byteLength":10176,"byteOffset":780552},{"target":34962,"buffer":0,"byteLength":10176,"byteOffset":790728},{"target":34962,"buffer":0,"byteLength":6784,"byteOffset":800904},{"target":34963,"buffer":0,"byteLength":18972,"byteOffset":807688},{"target":34962,"buffer":0,"byteLength":13068,"byteOffset":826660},{"target":34962,"buffer":0,"byteLength":13068,"byteOffset":839728},{"target":34962,"buffer":0,"byteLength":8712,"byteOffset":852796},{"target":34963,"buffer":0,"byteLength":22428,"byteOffset":861508},{"target":34962,"buffer":0,"byteLength":15516,"byteOffset":883936},{"target":34962,"buffer":0,"byteLength":15516,"byteOffset":899452},{"target":34962,"buffer":0,"byteLength":10344,"byteOffset":914968},{"target":34963,"buffer":0,"byteLength":31680,"byteOffset":925312},{"target":34962,"buffer":0,"byteLength":4572,"byteOffset":956992},{"target":34962,"buffer":0,"byteLength":4572,"byteOffset":961564},{"target":34962,"buffer":0,"byteLength":3048,"byteOffset":966136},{"target":34963,"buffer":0,"byteLength":9648,"byteOffset":969184},{"target":34962,"buffer":0,"byteLength":17472,"byteOffset":978832},{"target":34962,"buffer":0,"byteLength":17472,"byteOffset":996304},{"target":34962,"buffer":0,"byteLength":11648,"byteOffset":1013776},{"target":34963,"buffer":0,"byteLength":20664,"byteOffset":1025424},{"target":34962,"buffer":0,"byteLength":2160,"byteOffset":1046088},{"target":34962,"buffer":0,"byteLength":2160,"byteOffset":1048248},{"target":34962,"buffer":0,"byteLength":1440,"byteOffset":1050408},{"target":34963,"buffer":0,"byteLength":4104,"byteOffset":1051848},{"target":34962,"buffer":0,"byteLength":1968,"byteOffset":1055952},{"target":34962,"buffer":0,"byteLength":1968,"byteOffset":1057920},{"target":34962,"buffer":0,"byteLength":1312,"byteOffset":1059888},{"target":34963,"buffer":0,"byteLength":3672,"byteOffset":1061200},{"target":34962,"buffer":0,"byteLength":4308,"byteOffset":1064872},{"target":34962,"buffer":0,"byteLength":4308,"byteOffset":1069180},{"target":34962,"buffer":0,"byteLength":2872,"byteOffset":1073488},{"target":34963,"buffer":0,"byteLength":10332,"byteOffset":1076360},{"target":34962,"buffer":0,"byteLength":4740,"byteOffset":1086692},{"target":34962,"buffer":0,"byteLength":4740,"byteOffset":1091432},{"target":34962,"buffer":0,"byteLength":3160,"byteOffset":1096172},{"target":34963,"buffer":0,"byteLength":10980,"byteOffset":1099332},{"target":34962,"buffer":0,"byteLength":8460,"byteOffset":1110312},{"target":34962,"buffer":0,"byteLength":8460,"byteOffset":1118772},{"target":34962,"buffer":0,"byteLength":5640,"byteOffset":1127232},{"target":34963,"buffer":0,"byteLength":17964,"byteOffset":1132872},{"target":34962,"buffer":0,"byteLength":5868,"byteOffset":1150836},{"target":34962,"buffer":0,"byteLength":5868,"byteOffset":1156704},{"target":34962,"buffer":0,"byteLength":3912,"byteOffset":1162572},{"target":34963,"buffer":0,"byteLength":11520,"byteOffset":1166484},{"target":34962,"buffer":0,"byteLength":9684,"byteOffset":1178004},{"target":34962,"buffer":0,"byteLength":9684,"byteOffset":1187688},{"target":34962,"buffer":0,"byteLength":6456,"byteOffset":1197372},{"target":34963,"buffer":0,"byteLength":16704,"byteOffset":1203828},{"target":34962,"buffer":0,"byteLength":7476,"byteOffset":1220532},{"target":34962,"buffer":0,"byteLength":7476,"byteOffset":1228008},{"target":34962,"buffer":0,"byteLength":4984,"byteOffset":1235484},{"target":34963,"buffer":0,"byteLength":12816,"byteOffset":1240468},{"target":34962,"buffer":0,"byteLength":2112,"byteOffset":1253284},{"target":34962,"buffer":0,"byteLength":2112,"byteOffset":1255396},{"target":34962,"buffer":0,"byteLength":1408,"byteOffset":1257508},{"target":34963,"buffer":0,"byteLength":5040,"byteOffset":1258916}],"buffers":[{"byteLength":1263956,"uri":"data:application/octet-stream;base64,"}]}